# File exported by Houdini 19.0.383 (www.sidefx.com)
# 8 points
# 24 vertices
# 6 primitives
# Bounds: [-0.5, -0.5, -0.5] to [0.5, 0.5, 0.5]
g 
v 0.5 -0.5 0.5
v -0.5 -0.5 0.5
v 0.5 0.5 0.5
v -0.5 0.5 0.5
v -0.5 -0.5 -0.5
v 0.5 -0.5 -0.5
v -0.5 0.5 -0.5
v 0.5 0.5 -0.5
vn 0.577350259 -0.577350259 0.577350259
vn -0.577350259 -0.577350259 0.577350259
vn 0.577350259 0.577350259 0.577350259
vn -0.577350259 0.577350259 0.577350259
vn -0.577350259 -0.577350259 -0.577350259
vn 0.577350259 -0.577350259 -0.577350259
vn -0.577350259 0.577350259 -0.577350259
vn 0.577350259 0.577350259 -0.577350259
g 
f 1//1 3//3 4//4 2//2
f 5//5 7//7 8//8 6//6
f 7//7 4//4 3//3 8//8
f 6//6 1//1 2//2 5//5
f 6//6 8//8 3//3 1//1
f 2//2 4//4 7//7 5//5
